<?xml version="1.0" encoding="UTF-8"?>
<svg version="1.1" xmlns="http://www.w3.org/2000/svg" width="800" height="600">
<path d="M0 0 C264 0 528 0 800 0 C800 198 800 396 800 600 C536 600 272 600 0 600 C0 402 0 204 0 0 Z " fill="#FEFEFE" transform="translate(0,0)"/>
<path d="M0 0 C22.05865423 18.04551219 37.30613376 43.3781566 40.6394043 71.91430664 C40.90153803 76.75192706 40.91989983 81.57059993 40.8894043 86.41430664 C40.89713867 87.6427832 40.90487305 88.87125977 40.9128418 90.13696289 C40.89000251 100.90568813 39.71942484 111.08159971 36.0144043 121.22680664 C35.76295654 121.93756348 35.51150879 122.64832031 35.25244141 123.38061523 C33.10912093 129.19019264 30.35395048 134.56791318 27.09204102 139.82958984 C24.43429721 144.34364771 24.63271554 146.87392927 25.6394043 151.91430664 C26.39808951 154.26930835 27.22498212 156.60310713 28.1081543 158.91430664 C28.34852417 159.55368164 28.58889404 160.19305664 28.83654785 160.85180664 C29.59744297 162.87526154 30.3672252 164.89513324 31.1394043 166.91430664 C32.15804424 169.57795121 33.16711905 172.24493987 34.1706543 174.91430664 C34.61989258 176.08993164 35.06913086 177.26555664 35.53198242 178.47680664 C36.66355085 181.9892589 37.31709424 185.24042282 37.6394043 188.91430664 C36.5769043 190.85180664 36.5769043 190.85180664 34.6394043 191.91430664 C29.70227769 192.33646674 26.3430069 191.23118097 21.8269043 189.28930664 C20.51041567 188.73820678 19.19265116 188.19014716 17.8737793 187.64477539 C16.84414063 187.21817627 16.84414063 187.21817627 15.79370117 186.78295898 C12.09038437 185.28971316 8.33913026 183.93826247 4.5769043 182.60180664 C3.87525146 182.3477002 3.17359863 182.09359375 2.45068359 181.83178711 C-4.25456939 179.07617764 -4.25456939 179.07617764 -11.16064453 179.60546875 C-13.23508963 180.67802597 -15.23145754 181.84066052 -17.2355957 183.03930664 C-25.37336968 187.60890493 -33.31756566 190.67095253 -42.3605957 192.91430664 C-43.63290039 193.23270508 -44.90520508 193.55110352 -46.21606445 193.87915039 C-62.36494176 197.39400132 -78.34705545 196.79179909 -94.3605957 192.91430664 C-95.52848633 192.6474707 -96.69637695 192.38063477 -97.8996582 192.10571289 C-123.74312118 185.54275672 -147.91378716 167.56825841 -161.67797852 144.72827148 C-172.40702501 126.13722246 -177.77299769 108.27025149 -177.6730957 86.66430664 C-177.66745605 85.38595947 -177.66181641 84.1076123 -177.65600586 82.79052734 C-177.27946923 53.46354362 -165.40322427 27.08461135 -144.45336914 6.5390625 C-131.19219129 -5.98901773 -115.01209198 -15.33425028 -97.3605957 -20.08569336 C-96.31774414 -20.3834668 -95.27489258 -20.68124023 -94.20043945 -20.98803711 C-61.83495695 -28.90608638 -26.00242616 -20.5551997 0 0 Z " fill="#5FC4BE" transform="translate(469.360595703125,212.085693359375)"/>
<path d="M0 0 C1.26457031 0.38285156 1.26457031 0.38285156 2.5546875 0.7734375 C19.16065356 6.55634581 32.00006983 19.71473037 40 35 C47.03399599 51.00539534 49.8860761 71.30799621 43.3828125 88.06640625 C42.92648437 89.03449219 42.47015625 90.00257813 42 91 C41.73155273 91.59280762 41.46310547 92.18561523 41.18652344 92.79638672 C33.28215679 109.99254207 20.62640299 122.74792889 2.75 129.4375 C0.17865324 130.34140925 -2.40036718 131.17715485 -5 132 C-5.80953125 132.26683594 -6.6190625 132.53367187 -7.453125 132.80859375 C-22.23440184 136.89883257 -39.24201345 133.8328219 -52.5 126.6875 C-53.81484375 125.88892578 -53.81484375 125.88892578 -55.15625 125.07421875 C-62.35812945 122.35372857 -69.62078617 126.19177213 -76.26367188 129.00390625 C-80.24217131 130.60449601 -82.86659491 131.3965291 -87 130 C-88.26423127 126.45607429 -87.73871361 124.58393439 -86.3125 121.15625 C-85.94382812 120.23972656 -85.57515625 119.32320313 -85.1953125 118.37890625 C-84.3984375 116.45963542 -83.6015625 114.54036458 -82.8046875 112.62109375 C-82.43601562 111.70457031 -82.06734375 110.78804688 -81.6875 109.84375 C-81.34074219 109.01037109 -80.99398438 108.17699219 -80.63671875 107.31835938 C-79.11911352 101.79260045 -83.06987577 96.52975281 -85.4296875 91.6796875 C-89.32344871 82.92605307 -90.55547061 74.8745092 -90.5 65.3125 C-90.49427979 64.1663623 -90.48855957 63.02022461 -90.48266602 61.83935547 C-90.09352739 43.31006759 -82.22118041 27.89392347 -69 15 C-50.23607717 -2.52359572 -24.40151127 -7.8166401 0 0 Z " fill="#FEFEFE" transform="translate(423,233)"/>
</svg>
